<?xml version="1.0" encoding="UTF-8" standalone="no"?>
<svg width="26px" height="24px" viewBox="0 0 26 24" version="1.1" xmlns="http://www.w3.org/2000/svg" xmlns:xlink="http://www.w3.org/1999/xlink" xmlns:sketch="http://www.bohemiancoding.com/sketch/ns">
    <!-- Generator: Sketch 3.2.2 (9983) - http://www.bohemiancoding.com/sketch -->
    <title>atomise-logo</title>
    <desc>Created with Sketch.</desc>
    <defs></defs>
    <g id="Page-1" stroke="none" stroke-width="1" fill="none" fill-rule="evenodd" sketch:type="MSPage">
        <g id="atomise-logo" sketch:type="MSLayerGroup" fill="#FFFFFF">
            <g id="Group" sketch:type="MSShapeGroup">
                <path d="M25.963,12.013 C25.965,9.882 24.705,7.94 22.647,6.463 C22.401,3.834 21.299,1.823 19.483,0.775 C18.612,0.271 17.626,0.016 16.549,0.016 C15.401,0.016 14.195,0.315 13.002,0.862 C11.808,0.315 10.603,0.016 9.454,0.016 C8.379,0.016 7.392,0.271 6.518,0.775 C4.669,1.842 3.621,3.912 3.373,6.438 C1.309,7.912 0.038,9.854 0.036,11.987 C0.034,14.083 1.223,16.046 3.375,17.575 C3.623,20.096 4.672,22.161 6.518,23.226 C7.391,23.73 8.377,23.985 9.454,23.985 C10.602,23.985 11.808,23.686 13.003,23.139 C14.196,23.686 15.401,23.985 16.549,23.985 L16.549,23.985 C17.623,23.985 18.611,23.73 19.483,23.226 C21.295,22.18 22.399,20.174 22.647,17.549 C24.699,16.078 25.961,14.14 25.963,12.013 L25.963,12.013 Z M16.549,1.016 C17.445,1.016 18.264,1.226 18.983,1.64 C20.327,2.416 21.206,3.859 21.545,5.76 C20.371,5.095 19.01,4.568 17.518,4.208 C16.463,3.093 15.321,2.166 14.147,1.469 C14.961,1.176 15.771,1.016 16.549,1.016 L16.549,1.016 Z M21.703,7.155 C21.74,8.169 21.642,9.231 21.424,10.311 C21.082,9.475 20.684,8.645 20.215,7.835 C19.746,7.024 19.227,6.263 18.674,5.553 C19.803,5.928 20.815,6.414 21.69,6.982 L21.703,7.155 L21.703,7.155 Z M21.703,16.844 L21.687,17.029 C20.81,17.597 19.796,18.083 18.666,18.456 C19.223,17.745 19.744,16.979 20.215,16.165 C20.684,15.354 21.082,14.525 21.424,13.689 C21.645,14.769 21.74,15.83 21.703,16.844 L21.703,16.844 Z M19.35,15.664 C18.659,16.865 17.854,17.951 16.985,18.904 C15.743,19.174 14.411,19.328 13.019,19.328 L13.019,19.828 L12.995,19.328 C11.616,19.328 10.279,19.176 9.017,18.899 C8.148,17.947 7.345,16.861 6.654,15.664 C5.955,14.453 5.422,13.217 5.033,11.999 C5.422,10.782 5.955,9.545 6.654,8.334 C7.345,7.135 8.15,6.049 9.017,5.097 C10.267,4.826 11.607,4.67 13.009,4.67 C14.407,4.671 15.743,4.828 16.991,5.101 C17.856,6.053 18.659,7.137 19.348,8.334 C20.039,9.53 20.578,10.766 20.971,11.999 C20.578,13.232 20.039,14.469 19.35,15.664 L19.35,15.664 Z M15.732,20.142 C14.853,20.922 13.931,21.561 13.002,22.036 C12.07,21.561 11.148,20.921 10.27,20.14 C11.155,20.262 12.065,20.328 12.993,20.328 L13.018,20.328 C13.949,20.328 14.855,20.262 15.732,20.142 L15.732,20.142 Z M4.307,17.006 C4.253,15.965 4.338,14.848 4.578,13.685 C4.915,14.516 5.314,15.347 5.786,16.164 C6.254,16.976 6.773,17.735 7.328,18.445 C6.279,18.095 5.308,17.646 4.448,17.103 L4.307,17.006 L4.307,17.006 Z M4.309,6.978 C5.184,6.409 6.201,5.922 7.333,5.547 C6.775,6.259 6.256,7.022 5.786,7.835 C5.314,8.653 4.915,9.484 4.578,10.315 C4.337,9.146 4.252,8.021 4.309,6.978 L4.309,6.978 Z M10.27,3.858 C11.151,3.078 12.073,2.439 13.001,1.965 C13.935,2.44 14.857,3.082 15.742,3.865 C14.853,3.741 13.933,3.671 12.989,3.67 C12.057,3.67 11.147,3.737 10.27,3.858 L10.27,3.858 Z M7.02,1.64 C7.737,1.226 8.557,1.016 9.455,1.016 C10.233,1.016 11.043,1.178 11.858,1.469 C10.686,2.164 9.546,3.088 8.496,4.199 C6.996,4.557 5.629,5.087 4.449,5.754 C4.78,3.916 5.634,2.439 7.02,1.64 L7.02,1.64 Z M1.038,11.986 C1.04,10.388 1.892,8.913 3.319,7.708 C3.33,9.065 3.553,10.517 3.994,11.999 C3.556,13.472 3.332,14.916 3.319,16.268 C1.844,15.021 1.036,13.537 1.038,11.986 L1.038,11.986 Z M9.454,22.983 C8.558,22.983 7.737,22.773 7.018,22.359 C5.635,21.56 4.783,20.088 4.45,18.254 C5.653,18.935 7.022,19.457 8.501,19.808 C9.551,20.914 10.689,21.836 11.856,22.532 C11.042,22.822 10.231,22.983 9.454,22.983 L9.454,22.983 Z M18.98,22.359 C18.263,22.773 17.445,22.983 16.548,22.983 L16.546,22.983 C15.769,22.983 14.96,22.822 14.146,22.529 C15.316,21.834 16.457,20.912 17.505,19.8 C19.001,19.443 20.362,18.915 21.542,18.251 C21.201,20.146 20.322,21.586 18.98,22.359 L18.98,22.359 Z M22.699,16.278 C22.683,14.897 22.453,13.453 22.017,11.999 C22.453,10.55 22.683,9.108 22.699,7.731 C24.119,8.938 24.965,10.414 24.963,12.011 C24.961,13.604 24.115,15.076 22.699,16.278 L22.699,16.278 Z" id="Shape"></path>
                <circle id="Oval" cx="13" cy="12" r="1.705"></circle>
            </g>
        </g>
    </g>
</svg>